<?xml version="1.0" encoding="UTF-8"?>
<svg version="1.1" xmlns="http://www.w3.org/2000/svg" width="237" height="250">
<path d="M0 0 C1.39636436 -0.01007584 1.39636436 -0.01007584 2.82093811 -0.02035522 C5.88946923 -0.03930662 8.95778123 -0.0432582 12.02636719 -0.04541016 C14.16860035 -0.05184079 16.31083263 -0.05856935 18.45306396 -0.06558228 C22.94187454 -0.07754842 27.4306082 -0.08126385 31.91943359 -0.08007812 C37.65353145 -0.07987514 43.38713254 -0.10715904 49.12111282 -0.14162254 C53.54624671 -0.16393152 57.97126188 -0.16791441 62.39644623 -0.16685867 C64.50942443 -0.1692093 66.62240617 -0.17800232 68.73532867 -0.19352341 C71.70020149 -0.21326113 74.664014 -0.20731437 77.62890625 -0.1953125 C78.49054886 -0.20655151 79.35219147 -0.21779053 80.23994446 -0.22937012 C87.83935479 -0.15174286 94.25290248 2.07696754 100.57324219 6.29052734 C100.57324219 6.95052734 100.57324219 7.61052734 100.57324219 8.29052734 C101.15976563 8.52513672 101.74628906 8.75974609 102.35058594 9.00146484 C108.84934061 12.77051413 112.52440961 21.34726138 114.57324219 28.29052734 C115.59593293 33.95695612 115.70965839 39.43933298 115.68676758 45.1730957 C115.6869136 46.13972137 115.68705963 47.10634705 115.68721008 48.1022644 C115.68651673 51.27832327 115.67875147 54.45432255 115.67089844 57.63037109 C115.66903221 59.83997058 115.66760927 62.04957048 115.66661072 64.25917053 C115.66280171 70.06073153 115.65298526 75.8622673 115.64190674 81.66381836 C115.63165783 87.58951476 115.62710565 93.51521525 115.62207031 99.44091797 C115.6113615 111.05746548 115.59430454 122.67399431 115.57324219 134.29052734 C112.83475199 135.65977244 110.6667072 135.41332458 107.60018921 135.41078186 C105.69025932 135.41284386 105.69025932 135.41284386 103.741745 135.41494751 C102.32278419 135.41140812 100.90382362 135.40777331 99.48486328 135.40405273 C97.99690249 135.40377079 96.50894155 135.40392874 95.02098083 135.40449524 C90.97369557 135.40478293 86.92643976 135.39889079 82.87916136 135.39192128 C78.65240343 135.38568301 74.42564488 135.38508357 70.19888306 135.38389587 C62.19139292 135.38078396 54.18391639 135.37257244 46.17643225 135.36254638 C37.06168812 135.35138092 27.94694335 135.3458737 18.83219409 135.34085095 C0.0792024 135.33038972 -18.67377661 135.31279297 -37.42675781 135.29052734 C-38.5602424 133.02355817 -38.5592889 131.77554421 -38.57392883 129.25845337 C-38.58108414 128.41480225 -38.58823944 127.57115112 -38.59561157 126.70193481 C-38.59830048 125.77420258 -38.60098938 124.84647034 -38.60375977 123.890625 C-38.61033096 122.91474426 -38.61690216 121.93886353 -38.62367249 120.93341064 C-38.64344555 117.69046963 -38.65508143 114.44757517 -38.66503906 111.20458984 C-38.66911459 110.09608044 -38.67319012 108.98757103 -38.67738914 107.84547043 C-38.69827407 101.97022436 -38.71256125 96.09500176 -38.72192383 90.21972656 C-38.73295013 84.16962533 -38.76729949 78.11989576 -38.80709553 72.06992531 C-38.83334141 67.40452425 -38.8416231 62.7392103 -38.84520531 58.07374191 C-38.85005629 55.84518316 -38.86162745 53.61662791 -38.8802433 51.38814163 C-38.99818348 36.32450685 -39.09698252 23.53414332 -28.77441406 11.55224609 C-20.3084082 3.39614394 -11.54550154 -0.01203179 0 0 Z " fill="#F8362B" transform="translate(79.4267578125,22.70947265625)"/>
<path d="M0 0 C3.04524535 2.57674606 4.49674396 5.74734337 5.02679443 9.69955444 C5.1684581 12.35998509 5.22000531 15.00773532 5.23828125 17.671875 C5.26520805 19.12407944 5.26520805 19.12407944 5.29267883 20.60562134 C5.34664045 23.68234977 5.38063239 26.7589243 5.4140625 29.8359375 C5.44724803 31.92840676 5.48173883 34.02085576 5.51757812 36.11328125 C5.60235896 41.22905539 5.66923778 46.34478501 5.7265625 51.4609375 C45.3525666 52.37796381 84.96602169 52.55157276 124.6015625 52.5234375 C126.42324574 52.52215347 126.42324574 52.52215347 128.28173065 52.52084351 C143.43002244 52.50937958 158.57829308 52.489198 173.7265625 52.4609375 C173.72132568 51.52411133 173.71608887 50.58728516 173.71069336 49.62207031 C173.69347388 46.08837243 173.68102706 42.55472025 173.67163086 39.02099609 C173.66665565 37.50243417 173.65987309 35.9838769 173.65112305 34.46533203 C173.49758579 7.09957312 173.49758579 7.09957312 177.7265625 1.4609375 C182.44242494 -2.19626194 186.26541022 -3.24662693 192.2265625 -2.9921875 C197.34799016 -2.06392874 201.25589322 0.44320513 204.30801392 4.63066101 C206.03973051 8.08576773 206.10712698 10.47020952 206.11474609 14.32739258 C206.12263153 15.33333717 206.12263153 15.33333717 206.13067627 16.35960388 C206.14383105 18.56679901 206.13515185 20.77326682 206.125 22.98046875 C206.12702276 24.52357623 206.12993589 26.06668277 206.13369751 27.60978699 C206.13811533 30.84192009 206.13171013 34.07380411 206.11767578 37.3059082 C206.10062709 41.43159097 206.11040073 45.55668631 206.12839317 49.6823473 C206.13928266 52.86956632 206.13576039 56.05664832 206.1280098 59.24387169 C206.12601978 60.76398476 206.12842458 62.28411061 206.13544846 63.80420876 C206.16839929 72.9433571 205.93248139 80.23647709 201.0390625 88.2109375 C197.1753944 91.97018214 193.36689231 94.30770711 187.88696289 94.62573242 C186.91750732 94.60615479 185.94805176 94.58657715 184.94921875 94.56640625 C183.47787476 94.54356567 183.47787476 94.54356567 181.97680664 94.52026367 C181.23422607 94.50068604 180.49164551 94.4811084 179.7265625 94.4609375 C179.73703613 95.31324951 179.74750977 96.16556152 179.75830078 97.04370117 C179.79248905 100.22126255 179.81751323 103.39872982 179.83642578 106.57641602 C179.84645176 107.94884333 179.86007606 109.32124945 179.87744141 110.69360352 C179.90183877 112.67194277 179.91200734 114.65044117 179.921875 116.62890625 C179.93234863 117.81766357 179.94282227 119.0064209 179.95361328 120.23120117 C179.72811518 123.43885111 179.20688902 125.62012661 177.7265625 128.4609375 C174.08758299 130.28042726 169.79496962 129.64564203 165.7890625 129.6484375 C164.86931641 129.66068359 163.94957031 129.67292969 163.00195312 129.68554688 C162.11830078 129.68748047 161.23464844 129.68941406 160.32421875 129.69140625 C159.51476807 129.69551514 158.70531738 129.69962402 157.87133789 129.70385742 C155.7265625 129.4609375 155.7265625 129.4609375 152.7265625 127.4609375 C150.19333008 117.15396894 151.62995521 105.03720672 151.7265625 94.4609375 C150.7365625 94.7909375 149.7465625 95.1209375 148.7265625 95.4609375 C147.07705782 95.55079224 145.42412036 95.58290388 143.77217102 95.58119202 C142.74993439 95.58256668 141.72769775 95.58394135 140.67448425 95.58535767 C139.55383072 95.58176239 138.43317719 95.57816711 137.27856445 95.57446289 C136.09794434 95.57460892 134.91732422 95.57475494 133.70092773 95.5749054 C130.46358808 95.57432774 127.22629155 95.56930933 123.9889605 95.56233144 C120.60569461 95.55608398 117.22242788 95.555493 113.8391571 95.55430603 C107.43250034 95.55119683 101.02586063 95.54298897 94.61921138 95.53295654 C87.32544981 95.52178266 80.03168744 95.51628173 72.73791945 95.51126111 C57.7341243 95.50080603 42.7303451 95.48321452 27.7265625 95.4609375 C27.74227295 96.74726074 27.74227295 96.74726074 27.75830078 98.05957031 C27.79244546 101.25015263 27.81749209 104.44064162 27.83642578 107.63134766 C27.84646503 109.01061065 27.86009927 110.38985246 27.87744141 111.76904297 C27.90178004 113.7547889 27.91199505 115.740692 27.921875 117.7265625 C27.93758545 119.51755371 27.93758545 119.51755371 27.95361328 121.34472656 C27.73463586 124.3501328 27.46933884 126.02669818 25.7265625 128.4609375 C21.70829406 129.80036031 17.99704563 129.68432575 13.7890625 129.7109375 C12.57186523 129.741875 12.57186523 129.741875 11.33007812 129.7734375 C8.01432471 129.79519798 5.3340121 129.68413991 2.20703125 128.53515625 C-0.28734926 125.04039094 0.04360203 121.21130101 -0.0234375 117.0234375 C-0.05236084 116.12850586 -0.08128418 115.23357422 -0.11108398 114.31152344 C-0.30740628 107.69743125 -0.39446595 101.0771594 -0.2734375 94.4609375 C-0.9746875 94.50734375 -1.6759375 94.55375 -2.3984375 94.6015625 C-8.86175953 94.84744975 -14.12367198 94.6886926 -19.2734375 90.4609375 C-24.95036965 83.81719158 -26.37912537 78.31688661 -26.45043945 69.67041016 C-26.45701065 69.0079277 -26.46358185 68.34544525 -26.47035217 67.66288757 C-26.48996659 65.48359034 -26.50171933 63.30436153 -26.51171875 61.125 C-26.51579428 60.37707561 -26.5198698 59.62915123 -26.52406883 58.85856247 C-26.54487621 54.90180493 -26.55920245 50.94508155 -26.56860352 46.98828125 C-26.57967404 42.91402314 -26.61409608 38.84031022 -26.65377522 34.76624489 C-26.6799788 31.62113463 -26.68829849 28.47615386 -26.69188499 25.33094406 C-26.69673906 23.82950522 -26.70831936 22.3280717 -26.72692299 20.82674026 C-26.89818728 6.09337239 -26.89818728 6.09337239 -22.2734375 0.4609375 C-14.83842641 -4.05838297 -7.61772717 -3.66779456 0 0 Z " fill="#F8352A" transform="translate(28.2734375,113.5390625)"/>
<path d="M0 0 C0.33 0 0.66 0 1 0 C1.33 14.52 1.66 29.04 2 44 C10.60404487 44.17681707 19.20802415 44.3465085 27.8125 44.5 C28.47784004 44.51187725 29.14318008 44.5237545 29.82868195 44.53599167 C56.34421093 45.00374603 82.85576951 45.08683794 109.375 45.0625 C110.78413855 45.06121597 110.78413855 45.06121597 112.22174454 45.05990601 C123.81451623 45.0485541 135.40725803 45.02853506 147 45 C147.33 45.99 147.66 46.98 148 48 C99.16 48 50.32 48 0 48 C-1.125 41.25 -1.125 41.25 -1.02172852 37.46337891 C-1.00163223 36.62296051 -0.98153595 35.78254211 -0.96083069 34.91665649 C-0.92027809 33.58505997 -0.92027809 33.58505997 -0.87890625 32.2265625 C-0.85529526 31.3028183 -0.83168427 30.3790741 -0.80735779 29.42733765 C-0.73112506 26.49305284 -0.64692817 23.55905929 -0.5625 20.625 C-0.50923883 18.62892024 -0.45649874 16.6328265 -0.40429688 14.63671875 C-0.27556491 9.75763001 -0.13969257 4.87878673 0 0 Z " fill="#E16D67" transform="translate(32,121)"/>
<path d="M0 0 C1.62890625 1.16796875 1.62890625 1.16796875 3.62890625 4.16796875 C3.29890625 5.15796875 2.96890625 6.14796875 2.62890625 7.16796875 C1.25327771 5.87831699 -0.07875768 4.54107582 -1.37109375 3.16796875 C-1.37109375 2.50796875 -1.37109375 1.84796875 -1.37109375 1.16796875 C-4.34960938 1.21679688 -4.34960938 1.21679688 -7.328125 1.265625 C-9.37109375 1.16796875 -9.37109375 1.16796875 -12.37109375 0.16796875 C-12.37109375 0.82796875 -12.37109375 1.48796875 -12.37109375 2.16796875 C-14.68109375 2.16796875 -16.99109375 2.16796875 -19.37109375 2.16796875 C-19.70109375 3.15796875 -20.03109375 4.14796875 -20.37109375 5.16796875 C-21.36109375 5.16796875 -22.35109375 5.16796875 -23.37109375 5.16796875 C-23.37109375 30.90796875 -23.37109375 56.64796875 -23.37109375 83.16796875 C-27.11007067 79.42899183 -26.506482 74.42289545 -26.5480957 69.37744141 C-26.5546669 68.71495895 -26.5612381 68.0524765 -26.56800842 67.36991882 C-26.58762284 65.19062159 -26.59937558 63.01139278 -26.609375 60.83203125 C-26.61345053 60.08410686 -26.61752605 59.33618248 -26.62172508 58.56559372 C-26.64253246 54.60883618 -26.6568587 50.6521128 -26.66625977 46.6953125 C-26.67733029 42.62105439 -26.71175233 38.54734147 -26.75143147 34.47327614 C-26.77763505 31.32816588 -26.78595474 28.18318511 -26.78954124 25.03797531 C-26.79439531 23.53653647 -26.80597561 22.03510295 -26.82457924 20.53377151 C-26.99584353 5.80040364 -26.99584353 5.80040364 -22.37109375 0.16796875 C-14.82839313 -4.41681006 -7.59286999 -4.00351327 0 0 Z " fill="#E57671" transform="translate(28.37109375,113.83203125)"/>
<path d="M0 0 C5.45167831 0.11045368 9.38467797 1.70521265 13.375 5.4375 C16.3368165 9.49108775 16.7498817 12.38986338 16.74731445 17.36743164 C16.75096512 18.04448654 16.75461578 18.72154144 16.75837708 19.41911316 C16.76644903 21.64555346 16.75290266 23.87125829 16.73828125 26.09765625 C16.7377623 27.65034484 16.73828136 29.2030341 16.73979187 30.75572205 C16.7397023 34.00464732 16.7293033 37.25332365 16.71118164 40.50219727 C16.688476 44.66404928 16.68795541 48.82553841 16.69469929 52.98743534 C16.69804223 56.19163736 16.69140338 59.39575681 16.68157005 62.59994316 C16.67772479 64.13452154 16.67656704 65.66910911 16.6781559 67.20369148 C16.67852722 69.34829307 16.66588879 71.49243104 16.6496582 73.63696289 C16.64505081 74.8565419 16.64044342 76.07612091 16.63569641 77.33265686 C16.38818516 80.28046728 15.92291413 81.95700672 14.375 84.4375 C12.88817518 81.46385037 13.23381083 78.76706242 13.21728516 75.44921875 C13.21220444 74.73037506 13.20712372 74.01153137 13.20188904 73.27090454 C13.19117969 71.70817284 13.18256173 70.14542575 13.17576981 68.58267212 C13.16400018 66.11191731 13.14455405 63.64133883 13.12265015 61.1706543 C13.06095762 54.14540432 13.00691277 47.12017312 12.97363281 40.09472656 C12.95273795 35.79993102 12.9174799 31.50545783 12.87287521 27.21084595 C12.85867623 25.57137841 12.84998402 23.93185385 12.84682083 22.29232788 C12.84193552 20.00313348 12.81884234 17.71480163 12.79150391 15.42578125 C12.78341705 14.12165283 12.7753302 12.81752441 12.76699829 11.47387695 C12.57295914 9.97087036 12.57295914 9.97087036 12.375 8.4375 C9.59385944 6.10358797 9.59385944 6.10358797 6.6875 6.8125 C5.924375 7.01875 5.16125 7.225 4.375 7.4375 C4.375 6.7775 4.375 6.1175 4.375 5.4375 C5.035 5.4375 5.695 5.4375 6.375 5.4375 C6.375 4.7775 6.375 4.1175 6.375 3.4375 C5.385 3.4375 4.395 3.4375 3.375 3.4375 C3.375 2.7775 3.375 2.1175 3.375 1.4375 C0.075 1.7675 -3.225 2.0975 -6.625 2.4375 C-4.18592256 -0.00157744 -3.36631058 0.08858712 0 0 Z " fill="#E3746F" transform="translate(217.625,110.5625)"/>
<path d="M0 0 C0.94215363 -0.00350464 1.88430725 -0.00700928 2.85501099 -0.01062012 C5.95720875 -0.01939547 9.05917703 -0.01360449 12.16137695 -0.00683594 C14.32037907 -0.00818345 16.47938088 -0.01012471 18.63838196 -0.01263428 C23.15657448 -0.01557957 27.67468779 -0.01130572 32.19287109 -0.00195312 C37.99029407 0.00946153 43.78753228 0.00286539 49.58494854 -0.00909805 C54.03981425 -0.0163152 58.49463593 -0.01402974 62.94950294 -0.00884247 C65.08778721 -0.00750663 67.22607546 -0.00915138 69.36435509 -0.01380157 C72.34717836 -0.0188666 75.32969932 -0.01115773 78.3125 0 C79.19930954 -0.00404846 80.08611908 -0.00809692 80.99980164 -0.01226807 C81.81142761 -0.00662842 82.62305359 -0.00098877 83.45927429 0.00482178 C84.16402736 0.00557583 84.86878042 0.00632988 85.59488964 0.00710678 C87.4621582 0.25878906 87.4621582 0.25878906 90.4621582 2.25878906 C89.25359665 2.26687592 88.0450351 2.27496277 86.79985046 2.28329468 C75.42510968 2.3606897 64.05048948 2.44841209 52.67590618 2.54631615 C46.82774426 2.59631899 40.97960076 2.64264868 35.13134766 2.68066406 C29.49028572 2.71746645 23.84937641 2.76381264 18.2084446 2.81685257 C16.05344119 2.83542338 13.89840503 2.85052134 11.74335289 2.86213303 C8.73108577 2.87894947 5.71917025 2.9079734 2.70703125 2.93994141 C1.36267754 2.94318169 1.36267754 2.94318169 -0.00883484 2.94648743 C-0.82913177 2.95765091 -1.64942871 2.96881439 -2.49458313 2.98031616 C-3.20712911 2.98584692 -3.91967508 2.99137768 -4.65381336 2.99707603 C-6.8692753 3.16561954 -6.8692753 3.16561954 -9.5378418 5.25878906 C-10.4969043 5.01128906 -10.4969043 5.01128906 -11.4753418 4.75878906 C-14.1778057 4.1036463 -15.13248499 5.01731458 -17.5378418 6.25878906 C-18.5278418 5.92878906 -19.5178418 5.59878906 -20.5378418 5.25878906 C-13.70814392 0.83957279 -7.94404486 -0.0365162 0 0 Z " fill="#E76E68" transform="translate(79.537841796875,22.7412109375)"/>
<path d="M0 0 C0.33 0 0.66 0 1 0 C1.33 14.52 1.66 29.04 2 44 C31.205 44.495 31.205 44.495 61 45 C61.33 45.66 61.66 46.32 62 47 C41.33744715 48.23490177 20.68999958 48.10212241 0 48 C-1.13142757 42.67429045 -1.04348763 37.63080328 -0.87890625 32.2265625 C-0.85529526 31.3028183 -0.83168427 30.3790741 -0.80735779 29.42733765 C-0.73112506 26.49305284 -0.64692817 23.55905929 -0.5625 20.625 C-0.50923883 18.62892024 -0.45649874 16.6328265 -0.40429688 14.63671875 C-0.27556491 9.75763001 -0.13969257 4.87878673 0 0 Z " fill="#E9807B" transform="translate(32,121)"/>
<path d="M0 0 C-2.64458379 1.32229189 -4.67761301 1.09677194 -7.625 1.0625 C-8.62789062 1.05347656 -9.63078125 1.04445312 -10.6640625 1.03515625 C-11.43492187 1.02355469 -12.20578125 1.01195312 -13 1 C-12.98952637 1.85231201 -12.97905273 2.70462402 -12.96826172 3.58276367 C-12.93407345 6.76032505 -12.90904927 9.93779232 -12.89013672 13.11547852 C-12.88011074 14.48790583 -12.86648644 15.86031195 -12.84912109 17.23266602 C-12.82472373 19.21100527 -12.81455516 21.18950367 -12.8046875 23.16796875 C-12.79421387 24.35672607 -12.78374023 25.5454834 -12.77294922 26.77026367 C-12.99844732 29.97791361 -13.51967348 32.15918911 -15 35 C-18.63897951 36.81948976 -22.93159288 36.18470453 -26.9375 36.1875 C-27.85724609 36.19974609 -28.77699219 36.21199219 -29.72460938 36.22460938 C-30.60826172 36.22654297 -31.49191406 36.22847656 -32.40234375 36.23046875 C-33.21179443 36.23457764 -34.02124512 36.23868652 -34.85522461 36.24291992 C-37 36 -37 36 -40 34 C-40.51171875 31.3984375 -40.51171875 31.3984375 -40.6875 28.375 C-40.75324219 27.37210938 -40.81898438 26.36921875 -40.88671875 25.3359375 C-40.92410156 24.56507813 -40.96148437 23.79421875 -41 23 C-40.01 23 -39.02 23 -38 23 C-38 26.3 -38 29.6 -38 33 C-31.07 33.33 -24.14 33.66 -17 34 C-16.90912109 30.44412109 -16.90912109 30.44412109 -16.81640625 26.81640625 C-16.75466102 24.52950709 -16.69125508 22.24265963 -16.62768555 19.95581055 C-16.58427854 18.362107 -16.54260781 16.7683552 -16.50268555 15.17456055 C-16.44512193 12.88836092 -16.38138851 10.60240551 -16.31640625 8.31640625 C-16.29969376 7.59973282 -16.28298126 6.88305939 -16.26576233 6.14466858 C-16.11387171 1.11387171 -16.11387171 1.11387171 -15 0 C-13.04814727 -0.26218917 -11.08748327 -0.46028318 -9.125 -0.625 C-8.05507812 -0.72039062 -6.98515625 -0.81578125 -5.8828125 -0.9140625 C-3 -1 -3 -1 0 0 Z " fill="#EB8B87" transform="translate(221,207)"/>
<path d="M0 0 C-0.5260925 3.78786597 -1.38103911 6.17152224 -4 9 C-4.66 9 -5.32 9 -6 9 C-6 24.18 -6 39.36 -6 55 C-12.27 55 -18.54 55 -25 55 C-23 53 -23 53 -19.7421875 52.8046875 C-17.82792969 52.83949219 -17.82792969 52.83949219 -15.875 52.875 C-13.95300781 52.90207031 -13.95300781 52.90207031 -11.9921875 52.9296875 C-11.00476563 52.95289063 -10.01734375 52.97609375 -9 53 C-9.00785522 51.59476074 -9.00785522 51.59476074 -9.01586914 50.16113281 C-9.03308862 46.62743493 -9.04553544 43.09378275 -9.05493164 39.56005859 C-9.05990685 38.04149667 -9.06668941 36.5229394 -9.07543945 35.00439453 C-9.22595954 8.17640241 -9.22595954 8.17640241 -5 2 C-2 0 -2 0 0 0 Z " fill="#E88E89" transform="translate(211,113)"/>
<path d="M0 0 C0.33 0 0.66 0 1 0 C1 5.28 1 10.56 1 16 C1.66 16 2.32 16 3 16 C3.33 17.65 3.66 19.3 4 21 C13.9 20.505 13.9 20.505 24 20 C24.33 18.68 24.66 17.36 25 16 C25.33 17.65 25.66 19.3 26 21 C21.62717624 23.46831162 17.91665043 23.33213519 13 23.3125 C11.78957031 23.33666992 11.78957031 23.33666992 10.5546875 23.36132812 C9.38292969 23.36229492 9.38292969 23.36229492 8.1875 23.36328125 C7.47980469 23.36626221 6.77210937 23.36924316 6.04296875 23.37231445 C3.30232714 22.87285479 1.96142974 21.96849306 0 20 C-0.45410156 17.82348633 -0.45410156 17.82348633 -0.390625 15.33203125 C-0.37773437 14.43935547 -0.36484375 13.54667969 -0.3515625 12.62695312 C-0.31804688 11.69818359 -0.28453125 10.76941406 -0.25 9.8125 C-0.23195313 8.87212891 -0.21390625 7.93175781 -0.1953125 6.96289062 C-0.1481655 4.64090111 -0.08238231 2.3209631 0 0 Z " fill="#E9706D" transform="translate(29,220)"/>
<path d="M0 0 C4.87669599 3.77021875 4.98826024 10.64632678 5.75390625 16.38867188 C6.55410661 24.87968681 6.2182553 33.48468571 6 42 C5.67 42 5.34 42 5 42 C4.97812622 41.16359985 4.97812622 41.16359985 4.95581055 40.31030273 C4.61298315 28.51728263 3.64585396 17.5180925 1 6 C0.65220453 4.00246416 0.31421071 2.00309329 0 0 Z " fill="#E05A52" transform="translate(188,40)"/>
<path d="M0 0 C0.87454834 0.00523682 1.74909668 0.01047363 2.65014648 0.01586914 C3.59438477 0.0190918 4.53862305 0.02231445 5.51147461 0.02563477 C6.50469727 0.03401367 7.49791992 0.04239258 8.52124023 0.05102539 C9.51833008 0.05553711 10.51541992 0.06004883 11.54272461 0.06469727 C14.01478872 0.07652532 16.48673541 0.0930069 18.95874023 0.11352539 C18.95874023 0.44352539 18.95874023 0.77352539 18.95874023 1.11352539 C18.1189563 1.14325439 18.1189563 1.14325439 17.26220703 1.17358398 C14.72308169 1.26890322 12.18477136 1.37855292 9.64624023 1.48852539 C8.32462891 1.53493164 8.32462891 1.53493164 6.97631836 1.58227539 C5.70498047 1.6402832 5.70498047 1.6402832 4.40795898 1.69946289 C3.23753052 1.74659424 3.23753052 1.74659424 2.04345703 1.79467773 C-0.34281744 2.00940428 -0.34281744 2.00940428 -3.04125977 4.11352539 C-4.00032227 3.86602539 -4.00032227 3.86602539 -4.97875977 3.61352539 C-7.68122367 2.95838263 -8.63590296 3.87205091 -11.04125977 5.11352539 C-12.03125977 4.78352539 -13.02125977 4.45352539 -14.04125977 4.11352539 C-10.17304305 1.38301947 -7.73408363 0.90021522 -3.04125977 1.11352539 C-2.04125977 0.11352539 -2.04125977 0.11352539 0 0 Z " fill="#E55750" transform="translate(73.041259765625,23.886474609375)"/>
<path d="M0 0 C5.57980436 0.07299163 9.05652794 2.05992409 13.375 5.4375 C10.38886614 6.19679472 7.39985781 6.8493332 4.375 7.4375 C4.375 6.7775 4.375 6.1175 4.375 5.4375 C5.035 5.4375 5.695 5.4375 6.375 5.4375 C6.375 4.7775 6.375 4.1175 6.375 3.4375 C5.385 3.4375 4.395 3.4375 3.375 3.4375 C3.375 2.7775 3.375 2.1175 3.375 1.4375 C0.075 1.7675 -3.225 2.0975 -6.625 2.4375 C-4.18592256 -0.00157744 -3.36631058 0.08858712 0 0 Z " fill="#F28A82" transform="translate(217.625,110.5625)"/>
<path d="M0 0 C1.125 3.75 1.125 3.75 0 6 C-0.66 6 -1.32 6 -2 6 C-2.19335938 6.74765625 -2.38671875 7.4953125 -2.5859375 8.265625 C-2.97652344 9.74289063 -2.97652344 9.74289063 -3.375 11.25 C-3.63023438 12.22453125 -3.88546875 13.1990625 -4.1484375 14.203125 C-4.89598509 16.65837303 -5.77123817 18.75617405 -7 21 C-7.55980236 13.30271761 -5.59233983 7.79592618 -1.25 1.4375 C-0.8375 0.963125 -0.425 0.48875 0 0 Z " fill="#E87D79" transform="translate(49,37)"/>
<path d="M0 0 C2.64 0 5.28 0 8 0 C8.33 0.66 8.66 1.32 9 2 C11.12576782 2.46651207 11.12576782 2.46651207 13.5625 2.625 C15.026875 2.74875 16.49125 2.8725 18 3 C18 7.29 18 11.58 18 16 C17.67 16 17.34 16 17 16 C17 12.04 17 8.08 17 4 C14.463125 4.0928125 14.463125 4.0928125 11.875 4.1875 C7.15423172 4.20577394 4.0447513 3.62362246 0 1 C0 0.67 0 0.34 0 0 Z " fill="#F5ABA7" transform="translate(11,204)"/>
<path d="M0 0 C12.00222145 0.21056529 12.00222145 0.21056529 15.25 3.5625 C15.8275 4.366875 16.405 5.17125 17 6 C16.67 6.99 16.34 7.98 16 9 C14.62437146 7.71034824 13.29233607 6.37310707 12 5 C12 4.34 12 3.68 12 3 C8.04 3 4.08 3 0 3 C0 2.01 0 1.02 0 0 Z " fill="#E13A31" transform="translate(15,112)"/>
<path d="M0 0 C-0.52442422 3.7758544 -1.32654667 6.22372155 -4 9 C-4.99 9 -5.98 9 -7 9 C-6.53149863 4.78348764 -4.94559315 0 0 0 Z " fill="#E43934" transform="translate(211,113)"/>
<path d="M0 0 C3.66881155 0.70554068 6.70450534 2.27735506 10 4 C10 4.66 10 5.32 10 6 C7.36 6 4.72 6 2 6 C2 4.35 2 2.7 2 1 C1.34 0.67 0.68 0.34 0 0 Z " fill="#EF7A73" transform="translate(170,25)"/>
<path d="M0 0 C0.99 0 1.98 0 3 0 C3 3.3 3 6.6 3 10 C3.99 10.33 4.98 10.66 6 11 C4.0625 11.5625 4.0625 11.5625 2 12 C0.26043342 10.26043342 0.62809614 7.8063378 0.4375 5.4375 C0.35371094 4.42558594 0.26992187 3.41367188 0.18359375 2.37109375 C0.12300781 1.58863281 0.06242188 0.80617187 0 0 Z " fill="#DC5353" transform="translate(180,230)"/>
<path d="M0 0 C2.46800047 1.15173355 4.04783565 2.04783565 6 4 C5.625 6.125 5.625 6.125 5 8 C4.01 7.67 3.02 7.34 2 7 C0.8125 3.4375 0.8125 3.4375 0 0 Z " fill="#EF736E" transform="translate(180,31)"/>
<path d="M0 0 C2.6875 -0.3125 2.6875 -0.3125 5 0 C5 0.66 5 1.32 5 2 C4.01 2.33 3.02 2.66 2 3 C1.67 3.99 1.34 4.98 1 6 C-0.32 5.67 -1.64 5.34 -3 5 C-1.8125 2.5 -1.8125 2.5 0 0 Z " fill="#E56B69" transform="translate(7,113)"/>
<path d="M0 0 C0.66 0.33 1.32 0.66 2 1 C-0.65654657 4.73884332 -2.58110387 6.64978174 -7 8 C-5.50902342 4.2047869 -3.24299151 2.38957269 0 0 Z " fill="#F09D9A" transform="translate(57,29)"/>
<path d="M0 0 C0.66 0.33 1.32 0.66 2 1 C1.25 2.9375 1.25 2.9375 0 5 C-2.125 5.75 -2.125 5.75 -4 6 C-2.25 1.125 -2.25 1.125 0 0 Z " fill="#F3483F" transform="translate(186,37)"/>
<path d="M0 0 C0 0.99 0 1.98 0 3 C-1.75 4.75 -1.75 4.75 -4 6 C-6.25 5.6875 -6.25 5.6875 -8 5 C-5.77077045 2.77077045 -3.90864722 2.11871047 -1 1 C-0.67 0.67 -0.34 0.34 0 0 Z " fill="#F2A19C" transform="translate(228,200)"/>
<path d="M0 0 C0.66 0.33 1.32 0.66 2 1 C0.02 3.31 -1.96 5.62 -4 8 C-4.33 7.01 -4.66 6.02 -5 5 C-3.35 3.35 -1.7 1.7 0 0 Z " fill="#EFABA5" transform="translate(209,113)"/>
<path d="M0 0 C3.65316671 1.24976756 4.78065836 1.67098753 7 5 C6.67 5.99 6.34 6.98 6 8 C4.9970458 6.85675161 3.99770973 5.71032809 3 4.5625 C2.443125 3.92441406 1.88625 3.28632812 1.3125 2.62890625 C0 1 0 1 0 0 Z " fill="#F0AAA5" transform="translate(25,113)"/>
</svg>
