<?xml version="1.0" encoding="UTF-8"?>
<svg version="1.1" xmlns="http://www.w3.org/2000/svg" width="500" height="200">
<path d="M0 0 C1.45257454 -0.02398109 1.45257454 -0.02398109 2.93449402 -0.04844666 C4.48926201 -0.05649071 4.48926201 -0.05649071 6.07543945 -0.06469727 C7.15445023 -0.07372574 8.233461 -0.08275421 9.34516907 -0.09205627 C11.62721997 -0.10654859 13.90931233 -0.11544297 16.19140625 -0.11914062 C19.65933554 -0.131003 23.12546532 -0.18017267 26.59301758 -0.23071289 C28.81631624 -0.24018184 31.03962577 -0.24741461 33.26293945 -0.25219727 C34.80252571 -0.28149574 34.80252571 -0.28149574 36.37321472 -0.31138611 C44.5054315 -0.26116438 50.89321524 1.45945913 56.93476868 7.11706543 C62.24215727 13.76207979 61.77906084 21.0486678 61.5871582 29.18530273 C61.58111572 30.43436401 61.57507324 31.68342529 61.56884766 32.97033691 C61.53762876 37.60352986 61.45386092 42.23624892 61.3762207 46.86889648 C61.2524707 57.24327148 61.1287207 67.61764648 61.0012207 78.30639648 C33.9412207 78.30639648 6.8812207 78.30639648 -20.9987793 78.30639648 C-22.26879814 75.76635879 -22.1465352 73.9570599 -22.17578125 71.11328125 C-22.18861649 70.02777481 -22.20145172 68.94226837 -22.2146759 67.8238678 C-22.2257563 66.05371559 -22.2257563 66.05371559 -22.23706055 64.24780273 C-22.24513229 63.03374252 -22.25320404 61.81968231 -22.26152039 60.5688324 C-22.27537688 57.9905643 -22.28609199 55.41227774 -22.29394531 52.83398438 C-22.3110724 48.91622244 -22.35493609 44.99932311 -22.39916992 41.08178711 C-22.40930428 38.57463185 -22.41781805 36.06746941 -22.42456055 33.56030273 C-22.44206863 32.39841934 -22.45957672 31.23653595 -22.47761536 30.03944397 C-22.45608463 21.84187066 -21.66564869 13.44362384 -16.01411438 7.06715393 C-11.21271413 2.58434387 -6.66787043 0.08376214 0 0 Z " fill="#F93026" transform="translate(99.998779296875,30.693603515625)"/>
<path d="M0 0 C0.639375 -0.01289062 1.27875 -0.02578125 1.9375 -0.0390625 C4 0.625 4 0.625 9 5.625 C9 13.875 9 22.125 9 30.625 C38.7 30.625 68.4 30.625 99 30.625 C98.505 29.635 98.505 29.635 98 28.625 C97.73438568 25.3812857 97.76843275 22.12838069 97.75 18.875 C97.729375 17.98039062 97.70875 17.08578125 97.6875 16.1640625 C97.65647159 10.90474673 97.9681011 7.1303451 101 2.625 C104.20380017 0.48913322 105.01939967 0.39367825 108.6875 0.5 C109.89986328 0.52707031 109.89986328 0.52707031 111.13671875 0.5546875 C112.05904297 0.58949219 112.05904297 0.58949219 113 0.625 C113.99 2.605 113.99 2.605 115 4.625 C115.66 4.625 116.32 4.625 117 4.625 C117.1269082 10.94192016 117.21439585 17.25851094 117.2746582 23.57641602 C117.29978285 25.72497849 117.33388861 27.87345565 117.37719727 30.02172852 C117.43793792 33.11235612 117.46623044 36.20185263 117.48828125 39.29296875 C117.51408768 40.25148239 117.5398941 41.20999603 117.56648254 42.19755554 C117.56842884 46.83868917 117.54651531 48.91862235 114.62963867 52.6887207 C110.57229045 55.67626399 108.0618577 56.625 103 56.625 C103.02320313 57.67300781 103.04640625 58.72101563 103.0703125 59.80078125 C103.08907303 61.17968037 103.10727293 62.5585872 103.125 63.9375 C103.14175781 64.62779297 103.15851563 65.31808594 103.17578125 66.02929688 C103.21217794 69.79635396 103.14378864 71.40931704 101 74.625 C98.25 74.98828125 98.25 74.98828125 95 74.9375 C93.39125 74.93169922 93.39125 74.93169922 91.75 74.92578125 C89 74.625 89 74.625 87 72.625 C87 67.345 87 62.065 87 56.625 C65.55 56.625 44.1 56.625 22 56.625 C22 61.905 22 67.185 22 72.625 C21.34 72.625 20.68 72.625 20 72.625 C20 73.285 20 73.945 20 74.625 C17.85423363 74.65185938 15.70837355 74.67133088 13.5625 74.6875 C12.36753906 74.69910156 11.17257813 74.71070313 9.94140625 74.72265625 C7 74.625 7 74.625 6 73.625 C5.92674832 70.76232433 5.90761795 67.924281 5.9375 65.0625 C5.94426758 63.85303711 5.94426758 63.85303711 5.95117188 62.61914062 C5.96299482 60.62106244 5.98093086 58.62302217 6 56.625 C4.10894531 56.43550781 4.10894531 56.43550781 2.1796875 56.2421875 C-1.92447642 55.83093181 -4.03710015 54.58789985 -7 51.625 C-9.04330251 48.56004623 -9.25672079 47.88148325 -9.30639648 44.41650391 C-9.32238388 43.57197662 -9.33837128 42.72744934 -9.35484314 41.85733032 C-9.36020584 40.94792694 -9.36556854 40.03852356 -9.37109375 39.1015625 C-9.38012222 38.16323578 -9.3891507 37.22490906 -9.39845276 36.25814819 C-9.41296189 34.27271722 -9.42184364 32.28723836 -9.42553711 30.30175781 C-9.43742921 27.26805804 -9.48660415 24.23639513 -9.53710938 21.203125 C-9.54657418 19.27344742 -9.55380894 17.34375736 -9.55859375 15.4140625 C-9.57812607 14.50870758 -9.59765839 13.60335266 -9.61778259 12.67056274 C-9.58532771 8.12714766 -9.48158318 6.23954998 -6.59399414 2.5546875 C-4.09034123 0.69220537 -3.0557221 -0.0616073 0 0 Z " fill="#F73126" transform="translate(66,81.375)"/>
<path d="M0 0 C0 0.66 0 1.32 0 2 C0.66 2 1.32 2 2 2 C5.00559652 7.00932754 5.29341888 10.32723489 5 16 C0.71 16 -3.58 16 -8 16 C-8.4125 14.88625 -8.825 13.7725 -9.25 12.625 C-10.26658646 10.28448699 -10.7877906 9.16830401 -12.8125 7.5625 C-16.66236569 6.57253454 -19.68693974 6.36121393 -23.3125 8.125 C-25.56088745 10.62320828 -25.70751005 12.70948807 -26 16 C-22.81736726 17.07719877 -19.63206374 18.11062136 -16.4140625 19.078125 C-7.44562362 21.85186898 0.73625354 24.73057802 6 33 C7.45964086 38.84835969 7.41354439 44.43835424 5 50 C2.16121343 54.47690603 -1.12770348 57.94571617 -6.33203125 59.56640625 C-15.21215863 61.00958947 -26.0914109 61.68657132 -34 57 C-41.89082929 49.41922294 -41.89082929 49.41922294 -42.09765625 44.8359375 C-42.08605469 44.02382812 -42.07445312 43.21171875 -42.0625 42.375 C-42.05347656 41.55773437 -42.04445312 40.74046875 -42.03515625 39.8984375 C-42.02355469 39.27195313 -42.01195312 38.64546875 -42 38 C-39.85423363 37.97314062 -37.70837355 37.95366912 -35.5625 37.9375 C-34.36753906 37.92589844 -33.17257813 37.91429687 -31.94140625 37.90234375 C-29 38 -29 38 -28 39 C-27.95919217 40.99958364 -27.95745644 43.00045254 -28 45 C-22.39346792 47.25024076 -18.02496376 48.77204816 -12 47 C-9.45668762 45.45714369 -9.45668762 45.45714369 -8 43 C-7.66551741 39.832168 -7.66551741 39.832168 -8 37 C-11.25026772 35.88620109 -14.49821941 34.85882078 -17.8046875 33.921875 C-33.45422939 29.47286856 -33.45422939 29.47286856 -38 24 C-38 23.01 -38 22.02 -38 21 C-38.66 21 -39.32 21 -40 21 C-41.20408768 6.32159783 -41.20408768 6.32159783 -37 1.25 C-27.0392926 -7.85919563 -10.86701298 -7.67083269 0 0 Z " fill="#E3E3E3" transform="translate(239,62)"/>
<path d="M0 0 C4.64436348 5.14645682 5.17502403 8.52972311 5.31640625 15.2890625 C5.33718735 16.10748627 5.35796844 16.92591003 5.37937927 17.76913452 C5.44484812 20.38766966 5.50374726 23.00630639 5.5625 25.625 C5.60568776 27.39844807 5.64930214 29.17188581 5.69335938 30.9453125 C5.80052676 35.29677046 5.90180169 39.64833077 6 44 C1.71 44 -2.58 44 -7 44 C-7.33 43.01 -7.66 42.02 -8 41 C-8.7425 41.66 -9.485 42.32 -10.25 43 C-15.00862805 46.1724187 -20.52393204 45.7511753 -26 45 C-30.03654111 43.0171377 -32.6500056 40.83420139 -35 37 C-36.58890167 32.23329499 -36.57605363 28.42641851 -34.6875 23.75 C-31.99534072 19.36277747 -29.94286041 17.55814673 -25 16 C-22.05708611 15.76433697 -19.13735545 15.81071145 -16.1875 15.875 C-15.00510742 15.88853516 -15.00510742 15.88853516 -13.79882812 15.90234375 C-11.86575334 15.92577496 -9.9328362 15.96164162 -8 16 C-8.9274932 13.63690863 -9.93282407 11.30338446 -11 9 C-13.88411576 7.74282134 -15.22915233 7.73570937 -18.1875 8.75 C-20.29113844 10.03583873 -20.29113844 10.03583873 -22 13 C-25.0390625 13.29296875 -25.0390625 13.29296875 -28.625 13.1875 C-29.81351562 13.16042969 -31.00203125 13.13335937 -32.2265625 13.10546875 C-33.14179688 13.07066406 -34.05703125 13.03585938 -35 13 C-34.77110404 7.39204896 -33.3841502 4.65520215 -29.66796875 0.48046875 C-22.20007277 -6.14794478 -7.8821613 -5.51751291 0 0 Z M-22 28 C-22.2981424 31.7763932 -22.2981424 31.7763932 -21 34 C-17.44926433 35.04908099 -15.65916182 35.29961901 -12.25 33.75 C-9.78918149 32.02635231 -9.78918149 32.02635231 -8 29 C-8 27.68 -8 26.36 -8 25 C-15.55858824 24.4524877 -15.55858824 24.4524877 -22 28 Z " fill="#E3E3E3" transform="translate(333,77)"/>
<path d="M0 0 C4.62 0 9.24 0 14 0 C14.63808594 1.93746094 15.27617187 3.87492187 15.93359375 5.87109375 C16.55227428 7.74103826 17.17097567 9.61097595 17.7902832 11.48071289 C18.22105089 12.78309049 18.65074225 14.08582458 19.0793457 15.38891602 C19.69461363 17.25890373 20.31404059 19.12752142 20.93359375 20.99609375 C21.4913147 22.68496704 21.4913147 22.68496704 22.06030273 24.40795898 C22.75540376 26.8966603 22.75540376 26.8966603 24 28 C26.97 18.76 29.94 9.52 33 0 C37.62 0 42.24 0 47 0 C46.49426033 5.05739666 45.28970296 8.50865958 43 13 C42.18448167 15.45496239 41.46655046 17.92852808 40.75 20.4140625 C39.2643652 25.53640749 37.63394647 30.547206 35.5 35.4375 C34.309015 38.26608938 33.43986747 40.8734836 32.625 43.8125 C30.44411842 51.25248663 27.84724976 58.7436015 21 63 C17.93466836 64.53266582 14.73245728 64.10276471 11.375 64.0625 C10.66859375 64.05798828 9.9621875 64.05347656 9.234375 64.04882812 C7.48954725 64.03703875 5.744763 64.01910324 4 64 C3.875 56.375 3.875 56.375 5 53 C9.455 52.505 9.455 52.505 14 52 C15.33521435 49.87958556 15.33521435 49.87958556 16 47 C15.34360609 45.37180213 14.67402707 43.74778775 13.94213867 42.15209961 C12.04230233 37.81235943 10.60126209 33.29002453 9.0625 28.8125 C8.70986084 27.7910791 8.35722168 26.7696582 7.99389648 25.71728516 C6.99273854 22.81260827 5.99574329 19.90653669 5 17 C4.75507813 16.28859863 4.51015625 15.57719727 4.2578125 14.84423828 C2.55155142 9.88212562 1.03125176 5.15625878 0 0 Z " fill="#E4E4E4" transform="translate(393,74)"/>
<path d="M0 0 C4.06609198 3.42205377 5.66979431 6.4342514 7.65234375 11.390625 C7.65234375 15.680625 7.65234375 19.970625 7.65234375 24.390625 C-1.91765625 24.720625 -11.48765625 25.050625 -21.34765625 25.390625 C-19.18098958 31.22395833 -19.18098958 31.22395833 -16.34765625 32.390625 C-14.80741629 32.46013041 -13.26430637 32.47514857 -11.72265625 32.453125 C-10.49675781 32.43958984 -10.49675781 32.43958984 -9.24609375 32.42578125 C-8.61960937 32.41417969 -7.993125 32.40257812 -7.34765625 32.390625 C-6.68765625 31.070625 -6.02765625 29.750625 -5.34765625 28.390625 C-1.05765625 28.390625 3.23234375 28.390625 7.65234375 28.390625 C6.55543687 32.77825253 4.95051848 35.53562223 2.65234375 39.390625 C1.99234375 39.390625 1.33234375 39.390625 0.65234375 39.390625 C0.65234375 40.050625 0.65234375 40.710625 0.65234375 41.390625 C-6.02242401 45.20477801 -12.80538687 45.17355954 -20.34765625 44.390625 C-27.03956198 42.47865193 -30.35728942 38.65028284 -33.921875 32.8125 C-35.75254776 28.41888538 -35.86246848 24.72591338 -35.84765625 20.015625 C-35.87601563 19.20351562 -35.904375 18.39140625 -35.93359375 17.5546875 C-35.95593066 10.5855715 -33.62941246 5.95354451 -28.93994141 0.86230469 C-20.73869655 -6.66482787 -8.7720441 -6.24268169 0 0 Z M-20.34765625 9.390625 C-20.67765625 11.040625 -21.00765625 12.690625 -21.34765625 14.390625 C-16.39765625 14.390625 -11.44765625 14.390625 -6.34765625 14.390625 C-6.76973051 9.41793363 -6.76973051 9.41793363 -9.72265625 7.578125 C-14.20662499 5.54966295 -16.56235833 6.50184501 -20.34765625 9.390625 Z " fill="#E2E2E2" transform="translate(285.34765625,77.609375)"/>
<path d="M0 0 C1.093125 0.00257812 2.18625 0.00515625 3.3125 0.0078125 C4.405625 0.00523438 5.49875 0.00265625 6.625 0 C9.3125 0.1328125 9.3125 0.1328125 10.3125 1.1328125 C10.38476502 2.98568752 10.3963122 4.84115128 10.375 6.6953125 C10.36597656 7.70722656 10.35695313 8.71914062 10.34765625 9.76171875 C10.33605469 10.54417969 10.32445312 11.32664062 10.3125 12.1328125 C13.6125 12.1328125 16.9125 12.1328125 20.3125 12.1328125 C20.3125 15.7628125 20.3125 19.3928125 20.3125 23.1328125 C17.0125 23.1328125 13.7125 23.1328125 10.3125 23.1328125 C10.6425 31.0528125 10.9725 38.9728125 11.3125 47.1328125 C14.7775 47.6278125 14.7775 47.6278125 18.3125 48.1328125 C19.3125 49.1328125 19.3125 49.1328125 19.41015625 51.41796875 C19.39855469 52.33449219 19.38695312 53.25101563 19.375 54.1953125 C19.36597656 55.11441406 19.35695313 56.03351563 19.34765625 56.98046875 C19.33605469 57.69074219 19.32445312 58.40101562 19.3125 59.1328125 C13.25653191 60.23389761 8.13659139 60.373701 2.3125 58.1328125 C-0.9420414 55.69190645 -2.42651838 54.31654688 -3.30639648 50.32568359 C-3.67035449 47.27645698 -3.80165602 44.36583301 -3.78515625 41.296875 C-3.78193359 40.23339844 -3.77871094 39.16992188 -3.77539062 38.07421875 C-3.76701172 36.97980469 -3.75863281 35.88539062 -3.75 34.7578125 C-3.74548828 33.64019531 -3.74097656 32.52257812 -3.73632812 31.37109375 C-3.72459244 28.62494446 -3.70817363 25.87890664 -3.6875 23.1328125 C-5.9975 23.1328125 -8.3075 23.1328125 -10.6875 23.1328125 C-10.6875 19.5028125 -10.6875 15.8728125 -10.6875 12.1328125 C-8.3775 12.1328125 -6.0675 12.1328125 -3.6875 12.1328125 C-3.69910156 11.35035156 -3.71070313 10.56789063 -3.72265625 9.76171875 C-3.73167969 8.74980469 -3.74070312 7.73789063 -3.75 6.6953125 C-3.76160156 5.68597656 -3.77320313 4.67664063 -3.78515625 3.63671875 C-3.64920313 0.15088088 -3.49932324 0.17293167 0 0 Z " fill="#DFDFDF" transform="translate(350.6875,61.8671875)"/>
<path d="M0 0 C4.62 0 9.24 0 14 0 C14 20.79 14 41.58 14 63 C9.38 63 4.76 63 0 63 C0 42.21 0 21.42 0 0 Z " fill="#DCDCDC" transform="translate(375,58)"/>
<path d="M0 0 C0.639375 -0.01289062 1.27875 -0.02578125 1.9375 -0.0390625 C4 0.625 4 0.625 9 5.625 C9 13.875 9 22.125 9 30.625 C38.37 30.625 67.74 30.625 98 30.625 C98 30.955 98 31.285 98 31.625 C67.97 31.625 37.94 31.625 7 31.625 C6.67 24.035 6.34 16.445 6 8.625 C5.34 6.975 4.68 5.325 4 3.625 C0.65747276 3.55072162 -1.8035914 3.55953047 -5 4.625 C-6.19536461 9.31132563 -6.12759836 13.84529329 -6.09765625 18.64453125 C-6.0962413 19.50310226 -6.09482635 20.36167328 -6.09336853 21.2462616 C-6.08779057 23.97671049 -6.07524214 26.70707607 -6.0625 29.4375 C-6.05748215 31.2936186 -6.05291974 33.1497385 -6.04882812 35.00585938 C-6.03782836 39.5456048 -6.02057893 44.0852883 -6 48.625 C-6.99 48.625 -7.98 48.625 -9 48.625 C-9.12374395 42.59276797 -9.21440813 36.56127715 -9.2746582 30.52807617 C-9.29977806 28.47651294 -9.33388036 26.42503899 -9.37719727 24.3737793 C-9.43796002 21.42213909 -9.46623492 18.4716835 -9.48828125 15.51953125 C-9.51408768 14.60476517 -9.5398941 13.68999908 -9.56648254 12.74751282 C-9.56849042 8.17241836 -9.49837504 6.26350977 -6.59838867 2.5480957 C-4.09319815 0.69397697 -3.05240766 -0.06154048 0 0 Z " fill="#B53831" transform="translate(66,81.375)"/>
<path d="M0 0 C-0.50603992 2.16874252 -0.99983813 3.99967627 -2 6 C-2 7.32 -2 8.64 -2 10 C-2.99 10 -3.98 10 -5 10 C-5.33 10.99 -5.66 11.98 -6 13 C-6.66 13 -7.32 13 -8 13 C-8 32.14 -8 51.28 -8 71 C17.74 71 43.48 71 70 71 C70 51.2 70 31.4 70 11 C70.33 11 70.66 11 71 11 C71 31.13 71 51.26 71 72 C44.6 72 18.2 72 -9 72 C-9.4375 51.3125 -9.4375 51.3125 -9.56811523 44.8684082 C-9.60570807 43.13751277 -9.64416339 41.4066358 -9.68359375 39.67578125 C-9.70428421 38.75025955 -9.72497467 37.82473785 -9.74629211 36.87117004 C-9.90205542 30.75681663 -10.26711002 24.72481202 -10.9597168 18.64526367 C-11.05347243 12.48864391 -8.59602786 6.2973421 -4.375 1.8125 C-2 0 -2 0 0 0 Z " fill="#EA3A2E" transform="translate(89,35)"/>
<path d="M0 0 C1.21236328 0.02707031 1.21236328 0.02707031 2.44921875 0.0546875 C3.37154297 0.08949219 3.37154297 0.08949219 4.3125 0.125 C4.9725 1.445 5.6325 2.765 6.3125 4.125 C6.9725 4.125 7.6325 4.125 8.3125 4.125 C8.4394082 10.44192016 8.52689585 16.75851094 8.5871582 23.07641602 C8.61228285 25.22497849 8.64638861 27.37345565 8.68969727 29.52172852 C8.75043792 32.61235612 8.77873044 35.70185263 8.80078125 38.79296875 C8.82658768 39.75148239 8.8523941 40.70999603 8.87898254 41.69755554 C8.88092884 46.33868917 8.85901531 48.41862235 5.94213867 52.1887207 C1.88479045 55.17626399 -0.6256423 56.125 -5.6875 56.125 C-5.6875 61.075 -5.6875 66.025 -5.6875 71.125 C-6.0175 71.125 -6.3475 71.125 -6.6875 71.125 C-6.6875 65.845 -6.6875 60.565 -6.6875 55.125 C-3.7175 54.63 -3.7175 54.63 -0.6875 54.125 C-0.6875 53.465 -0.6875 52.805 -0.6875 52.125 C0.9625 52.125 2.6125 52.125 4.3125 52.125 C4.3125 50.475 4.3125 48.825 4.3125 47.125 C4.9725 47.125 5.6325 47.125 6.3125 47.125 C6.24371349 41.34047288 6.15579133 35.5566749 6.05004883 29.77270508 C6.01677514 27.80468829 5.98875085 25.83657551 5.96606445 23.8684082 C5.93256322 21.04076188 5.88025037 18.21399718 5.82421875 15.38671875 C5.81782883 14.50537766 5.8114389 13.62403656 5.80485535 12.71598816 C5.78506119 11.89536392 5.76526703 11.07473969 5.74487305 10.22924805 C5.73376999 9.50754929 5.72266693 8.78585052 5.71122742 8.0422821 C5.19078705 5.53974287 4.36800523 4.61689088 2.3125 3.125 C-1.26193924 3.38031709 -4.29115077 3.99288359 -7.6875 5.125 C-7.67589844 5.68445313 -7.66429687 6.24390625 -7.65234375 6.8203125 C-7.56826587 14.29123304 -8.08683891 21.68109286 -8.6875 29.125 C-9.3475 28.795 -10.0075 28.465 -10.6875 28.125 C-10.77524066 24.91684155 -10.82813706 21.70899538 -10.875 18.5 C-10.90013672 17.59636719 -10.92527344 16.69273438 -10.95117188 15.76171875 C-11.00921795 10.46017746 -10.75961599 6.66514344 -7.6875 2.125 C-4.48369983 -0.01086678 -3.66810033 -0.10632175 0 0 Z " fill="#CD3D35" transform="translate(174.6875,81.875)"/>
<path d="M0 0 C1.07759583 -0.00761353 2.15519165 -0.01522705 3.26544189 -0.02307129 C5.5415211 -0.03385508 7.81764971 -0.03673242 10.09375 -0.03222656 C13.55293713 -0.03125706 17.00988435 -0.07284307 20.46875 -0.1171875 C22.68749541 -0.12239723 24.90624847 -0.12508265 27.125 -0.125 C28.14825378 -0.14139526 29.17150757 -0.15779053 30.22576904 -0.17468262 C37.40300405 -0.10659608 42.81329902 1.48078256 48.828125 5.46875 C51.453125 8.28125 51.453125 8.28125 52.828125 10.46875 C51.828125 12.46875 51.828125 12.46875 49.828125 13.46875 C49.828125 12.14875 49.828125 10.82875 49.828125 9.46875 C49.168125 9.46875 48.508125 9.46875 47.828125 9.46875 C47.828125 8.80875 47.828125 8.14875 47.828125 7.46875 C47.168125 7.46875 46.508125 7.46875 45.828125 7.46875 C45.828125 6.80875 45.828125 6.14875 45.828125 5.46875 C42.61220412 4.52271836 39.67151596 4.31715307 36.32519531 4.26342773 C34.67393646 4.2335099 34.67393646 4.2335099 32.98931885 4.20298767 C31.80690613 4.18627518 30.62449341 4.16956268 29.40625 4.15234375 C28.19112732 4.13156265 26.97600464 4.11078156 25.72406006 4.08937073 C21.84213927 4.02398172 17.9601508 3.96503949 14.078125 3.90625 C11.44660758 3.86305468 8.81509701 3.81944006 6.18359375 3.77539062 C-0.2681576 3.66831117 -6.71997629 3.56652486 -13.171875 3.46875 C-13.501875 4.12875 -13.831875 4.78875 -14.171875 5.46875 C-15.161875 4.80875 -16.151875 4.14875 -17.171875 3.46875 C-11.5993485 -0.09180363 -6.49165842 0.00126778 0 0 Z " fill="#CA2D25" transform="translate(106.171875,30.53125)"/>
<path d="M0 0 C1.17755859 -0.00773437 1.17755859 -0.00773437 2.37890625 -0.015625 C4.4375 0.25 4.4375 0.25 6.4375 2.25 C6.0625 4.375 6.0625 4.375 5.4375 6.25 C5.086875 5.734375 4.73625 5.21875 4.375 4.6875 C2.36889949 2.87288944 2.36889949 2.87288944 -1.0625 3.5 C-4.51188555 4.17177767 -4.51188555 4.17177767 -7.5625 5.25 C-7.55089844 5.80945313 -7.53929687 6.36890625 -7.52734375 6.9453125 C-7.44326587 14.41623304 -7.96183891 21.80609286 -8.5625 29.25 C-9.2225 28.92 -9.8825 28.59 -10.5625 28.25 C-10.65024066 25.04184155 -10.70313706 21.83399538 -10.75 18.625 C-10.77513672 17.72136719 -10.80027344 16.81773438 -10.82617188 15.88671875 C-10.88421795 10.58517746 -10.63461599 6.79014344 -7.5625 2.25 C-4.42838698 0.16059132 -3.58799528 -0.02364412 0 0 Z " fill="#9B2B28" transform="translate(174.5625,81.75)"/>
<path d="M0 0 C-0.50603992 2.16874252 -0.99983813 3.99967627 -2 6 C-2 7.32 -2 8.64 -2 10 C-2.99 10 -3.98 10 -5 10 C-5.33 10.99 -5.66 11.98 -6 13 C-6.66 13 -7.32 13 -8 13 C-8 14.32 -8 15.64 -8 17 C-8.99 16.67 -9.98 16.34 -11 16 C-5.98423818 0 -5.98423818 0 0 0 Z " fill="#CE322A" transform="translate(89,35)"/>
<path d="M0 0 C0.66 0 1.32 0 2 0 C2 1.65 2 3.3 2 5 C0.75539217 5.67667998 -0.49596896 6.34094719 -1.75 7 C-2.44609375 7.37125 -3.1421875 7.7425 -3.859375 8.125 C-6 9 -6 9 -10 9 C-10 13.95 -10 18.9 -10 24 C-10.33 24 -10.66 24 -11 24 C-11 18.72 -11 13.44 -11 8 C-9.02 7.67 -7.04 7.34 -5 7 C-5 6.34 -5 5.68 -5 5 C-3.35 5 -1.7 5 0 5 C0 3.35 0 1.7 0 0 Z " fill="#A52F26" transform="translate(179,129)"/>
<path d="M0 0 C0.680625 -0.00515625 1.36125 -0.0103125 2.0625 -0.015625 C4 0.25 4 0.25 7 2.25 C7 2.91 7 3.57 7 4.25 C6.38511719 4.16621094 5.77023438 4.08242187 5.13671875 3.99609375 C4.32847656 3.89425781 3.52023438 3.79242188 2.6875 3.6875 C1.88699219 3.58308594 1.08648437 3.47867188 0.26171875 3.37109375 C-2.16817116 3.10244822 -2.16817116 3.10244822 -5 4.25 C-5.33 5.9 -5.66 7.55 -6 9.25 C-7.0625 7.4375 -7.0625 7.4375 -8 5.25 C-6.54264871 0.87794612 -4.3497621 -0.03295274 0 0 Z " fill="#BC312F" transform="translate(66,81.75)"/>
<path d="M0 0 C0.83144531 0.06123047 1.66289063 0.12246094 2.51953125 0.18554688 C4.55587831 0.33768775 6.59066224 0.51050835 8.625 0.6875 C8.625 1.0175 8.625 1.3475 8.625 1.6875 C2.025 2.0175 -4.575 2.3475 -11.375 2.6875 C-11.705 3.3475 -12.035 4.0075 -12.375 4.6875 C-13.365 4.0275 -14.355 3.3675 -15.375 2.6875 C-10.02312037 -0.68123976 -6.04558609 -0.54477769 0 0 Z " fill="#BF3127" transform="translate(104.375,31.3125)"/>
<path d="M0 0 C4.42700422 1.39134418 6.99413292 3.47884142 10 7 C10 7.99 10 8.98 10 10 C9.01 10.495 9.01 10.495 8 11 C8 9.68 8 8.36 8 7 C7.34 7 6.68 7 6 7 C6 6.34 6 5.68 6 5 C5.34 5 4.68 5 4 5 C4 4.34 4 3.68 4 3 C2.68 2.67 1.36 2.34 0 2 C0 1.34 0 0.68 0 0 Z " fill="#B02D25" transform="translate(148,33)"/>
<path d="M0 0 C4.29 0 8.58 0 13 0 C12 4 12 4 10 7 C10 5.02 10 3.04 10 1 C6.7 1 3.4 1 0 1 C0 0.67 0 0.34 0 0 Z " fill="#969696" transform="translate(280,106)"/>
</svg>
